<svg width="0" height="0" class="hidden">
  <symbol viewBox="0 0 24 24" xmlns="http://www.w3.org/2000/svg" id="store">
    <title>B5FDB5CD-FD9D-4C48-9AE5-68ED28A37792</title>
    <path d="M15.342 21a1.421 1.421 0 1 0 0-2.842 1.421 1.421 0 0 0 0 2.842zm-7.579 0a1.421 1.421 0 1 0 0-2.842 1.421 1.421 0 0 0 0 2.842zM21.411 3.5H19l-2.491 12H7.865c-1.492 0-2.016-.834-2.316-1.534-.3-.7-1.794-4.352-2.041-5.132-.247-.78-.363-2.344 2.04-2.344h8.623"
      stroke="#FFF" stroke-width="1.2" fill="none" fill-rule="evenodd" stroke-linecap="round" stroke-linejoin="round"></path>
  </symbol>
  <symbol viewBox="0 0 32 32" xmlns="http://www.w3.org/2000/svg" id="ultimate">
    <title>814FCA8E-8F13-4411-B870-CC593E90635E</title>
    <path d="M14.916 14.216l-2.576 2.46a1.711 1.711 0 0 0-.532 1.133c.027.416.191.774.491 1.073.34.3.736.462 1.186.488a1.729 1.729 0 0 0 1.125-.488l.163-.156m2.475-4.041l-2.577-2.46a1.507 1.507 0 0 0-1.125-.488c-.45 0-.831.15-1.145.45-.327.324-.504.695-.531 1.112.027.43.204.8.531 1.113l.164.156m1.881 1.894l2.577 2.42c.3.326.675.495 1.124.508a1.67 1.67 0 0 0 1.145-.469c.328-.325.505-.696.532-1.112a1.569 1.569 0 0 0-.532-1.094l-.163-.156m-2.393.332l2.577-2.48c.341-.286.511-.644.511-1.073 0-.43-.156-.794-.47-1.093a1.85 1.85 0 0 0-1.166-.508c-.45.026-.838.195-1.165.508l-.164.156M27 13.6c0 1.766-.261 3.735-.646 4.862-1.205 3.572-4.405 6.696-9.6 9.372A1.71 1.71 0 0 1 16 28c-.272 0-.524-.055-.753-.166-5.195-2.676-8.513-5.753-9.58-9.372a17.094 17.094 0 0 1-.666-4.862c.014-1.78 0-4.3 0-4.32 0-1.49.954-2.618 2.346-2.963.614-.152 2.982-.814 7.103-1.986C15.15 4.111 15.667 4 16 4c.334 0 .879.11 1.636.331 3.77 1.076 6.123 1.738 7.06 1.986C26.104 6.69 27 7.77 27 9.28v4.32z"
      stroke="#FF7800" stroke-width="1.2" fill="none" fill-rule="evenodd" stroke-linecap="round" stroke-linejoin="round"></path>
  </symbol>
  <symbol xmlns="http://www.w3.org/2000/svg" viewBox="0 0 32 32" id="vpn">
    <path fill="none" fill-rule="evenodd" stroke="#FF7800" stroke-linecap="round" stroke-linejoin="round" stroke-width="1.2" d="M10.135 16.5h12c1.033 0 1.652.8 1.652 1.8s-.135 6.6-.135 7.4c0 1-.62 1.8-1.652 1.8H10c-1.032 0-1.652-.8-1.652-1.8 0-.8.136-6.4.136-7.4s.62-1.8 1.651-1.8zm1.365 0v-2c0-2.456 2.106-4 4.5-4s4.5 1.544 4.5 4v2m-4.5 7v-3M10.89 8.6c1.533-1.334 3.03-2.1 5.11-2.1 2.102 0 4.218.766 5.729 2.1M8 6c2.239-2 4.916-3.5 8-3.5 3.13 0 5.785 1.5 8 3.5"></path>
  </symbol>
  <symbol viewBox="0 0 16 16" xmlns="http://www.w3.org/2000/svg" id="back-s">
    <title>51B48E61-7B80-4090-B081-0A39A6C98AEE</title>
    <path d="M10 2L4 8l6 6" stroke="#4E22D0" stroke-width="1.2" fill="none" fill-rule="evenodd" stroke-linecap="round" stroke-linejoin="round"></path>
  </symbol>
  <symbol viewBox="0 0 17 16" xmlns="http://www.w3.org/2000/svg" id="check">
    <title>8BD5A2B4-C42D-42F0-A507-C60AB58C64E5</title>
    <path d="M2 8l4.125 4L14 4" stroke="#4E22D0" stroke-width="1.5" fill="none" fill-rule="evenodd" stroke-linecap="round" stroke-linejoin="round"></path>
  </symbol>
  <symbol xmlns="http://www.w3.org/2000/svg" viewBox="0 0 32 32" id="clean-up-premium">
    <path fill="none" fill-rule="evenodd" stroke="#FF7800" stroke-linecap="round" stroke-linejoin="round" stroke-width="1.2" d="M7.345 21.725L4 25.094l3.345-3.369zm7.324 1.055l3.218-1.492-3.218 1.492zm-3.117 3.188l-.963.952.963-.952zm7.45-14.477c0-.755.245-1.398.735-1.93a2.567 2.567 0 0 1 1.9-.797c.744 0 1.369.266 1.876.798.506.531.76 1.174.76 1.929 0 .736-.254 1.37-.76 1.902-.507.514-1.132.772-1.876.772a2.481 2.481 0 0 1-1.9-.772 2.571 2.571 0 0 1-.735-1.902zm-5.93 1.696a83.37 83.37 0 0 0-1.064 2.135l1.064-2.135zm3.7 3.266l-1.825 1.852 2.94 2.983a61.146 61.146 0 0 0 2.078-1.003m-9.401 2.443l2.052-2.031-2.154-2.16-5.068-2.16 3.143-3.19h4.535c.507-1.062.93-1.886 1.267-2.468 1.352-2.28 2.813-3.866 4.384-4.757 1.52-.84 3.278-1.424 5.272-1.75a14.644 14.644 0 0 1 4.814-.025c.27 1.611.254 3.318-.05 5.118-.305 1.885-.88 3.591-1.724 5.117-.844 1.594-2.39 3.094-4.637 4.5-.575.343-1.386.798-2.433 1.363v4.526L16.823 28l-2.154-5.22-2.053-2.083 2.331-2.392-2.94-2.983-1.545 3.214M26.5 21.583v5.834M23.583 24.5h5.834"></path>
  </symbol>
  <symbol viewBox="0 0 16 16" xmlns="http://www.w3.org/2000/svg" id="cross-s">
    <title>91F3DCBE-E823-437B-83B9-EDC1FDCA5016</title>
    <path d="M3 13L13 3M3 3l10 10" stroke="#A8A4C3" stroke-width="1.5" fill="none" fill-rule="evenodd" stroke-linecap="round" stroke-linejoin="round"></path>
  </symbol>
  <symbol xmlns="http://www.w3.org/2000/svg" viewBox="0 0 24 24" id="download-m">
    <path fill="none" fill-rule="evenodd" stroke="#FFF" stroke-linecap="round" stroke-linejoin="round" stroke-width="1.2" d="M12 3v14m5-6l-5 6-5-6m-4 9.5h18"></path>
  </symbol>
  <symbol viewBox="0 0 32 32" xmlns="http://www.w3.org/2000/svg" id="free">
    <title>B69FFDD1-9694-400F-9AED-A8EFDEA1989D</title>
    <path d="M27 13.6c0 1.766-.261 3.735-.646 4.862-1.205 3.572-4.405 6.696-9.6 9.372A1.71 1.71 0 0 1 16 28c-.272 0-.524-.055-.753-.166-5.195-2.676-8.513-5.753-9.58-9.372a17.094 17.094 0 0 1-.666-4.862c.014-1.78 0-4.3 0-4.32 0-1.49.954-2.618 2.346-2.963.614-.152 2.982-.814 7.103-1.986C15.15 4.111 15.667 4 16 4c.334 0 .879.11 1.636.331 3.77 1.076 6.123 1.738 7.06 1.986C26.104 6.69 27 7.77 27 9.28v4.32z"
      stroke="#FF7800" stroke-width="1.2" fill="none" fill-rule="evenodd" stroke-linecap="round" stroke-linejoin="round"></path>
  </symbol>
  <symbol viewBox="0 0 16 16" xmlns="http://www.w3.org/2000/svg" id="info">
    <title>44BFD93D-7879-4A21-A1D2-B54EEF256148</title>
    <path d="M8 0a8 8 0 1 1 0 16A8 8 0 0 1 8 0zm0 1.2a6.8 6.8 0 1 0 0 13.6A6.8 6.8 0 0 0 8 1.2zm0 6.3a1 1 0 0 1 .993.883L9 8.5v3.486a1 1 0 0 1-1.993.117L7 11.986V8.5a1 1 0 0 1 1-1zM8 3a1 1 0 0 1 .993.883L9 4v1a1 1 0 0 1-1.993.117L7 5V4a1 1 0 0 1 1-1z"
      fill="#514988" fill-rule="evenodd"></path>
  </symbol>
  <symbol xmlns="http://www.w3.org/2000/svg" viewBox="0 0 16 16" id="info-hover">
    <path fill="#261C6A" fill-rule="evenodd" d="M8 0a8 8 0 1 1 0 16A8 8 0 0 1 8 0zm0 7.5a1 1 0 0 0-1 1v3.486l.007.117A1 1 0 0 0 9 11.986V8.5l-.007-.117A1 1 0 0 0 8 7.5zM8 3a1 1 0 0 0-1 1v1l.007.117A1 1 0 0 0 9 5V4l-.007-.117A1 1 0 0 0 8 3z"></path>
  </symbol>
  <symbol viewBox="0 0 16 16" xmlns="http://www.w3.org/2000/svg" id="next-s">
    <title>3B07D223-688A-4249-A9A8-E99C2346261A</title>
    <path d="M6 2l6 6-6 6" stroke="#4E22D0" stroke-width="1.2" fill="none" fill-rule="evenodd" stroke-linecap="round" stroke-linejoin="round"></path>
  </symbol>
  <symbol xmlns="http://www.w3.org/2000/svg" viewBox="0 0 32 32" id="passwords-premium">
    <path fill="none" fill-rule="evenodd" stroke="#FF7800" stroke-linecap="round" stroke-linejoin="round" stroke-width="1.2" d="M19.897 17.518l5.923 5.97-5.923-5.97zm-7.171-4.732a1.85 1.85 0 0 1-1.387.6c-.541 0-1.01-.2-1.406-.6a1.91 1.91 0 0 1-.575-1.397c0-.546.191-1.018.575-1.418a1.948 1.948 0 0 1 1.406-.579 1.88 1.88 0 0 1 1.387.58c.396.399.594.871.594 1.417a1.88 1.88 0 0 1-.594 1.397zM27.74 22.97c.185.452.27.891.258 1.317v2.157a1.507 1.507 0 0 1-.476 1.078c-.29.306-.647.466-1.07.479h-2.238a1.244 1.244 0 0 1-.614-.28c-.158-.146-.25-.359-.277-.638v-2.057h-1.942c-.277-.027-.495-.12-.653-.28a.986.986 0 0 1-.238-.618V22.23h-2.437l-1.703-1.757c-1.017.466-2.126.699-3.328.699-2.206 0-4.094-.792-5.666-2.376C5.786 17.226 5 15.322 5 13.086c0-2.236.786-4.146 2.357-5.73C8.93 5.786 10.817 5 13.023 5c2.218 0 4.107.785 5.665 2.356 1.572 1.584 2.358 3.494 2.358 5.73 0 .865-.12 1.69-.357 2.476l6.2 6.169c.383.372.667.785.852 1.238zM26.5 4.583v5.834M23.583 7.5h5.834"></path>
  </symbol>
  <symbol viewBox="0 0 32 32" xmlns="http://www.w3.org/2000/svg" id="premium">
    <title>E1D020DF-134E-4433-B764-9F750E9A3677</title>
    <path d="M20.819 13.268c.028.069.014.123-.043.165l-2.368 1.644c-.144.095-.23.185-.258.267-.029.095-.014.226.043.39l.904 2.651c.028.069.014.123-.043.165-.072.04-.13.04-.172 0l-2.39-1.644c-.143-.096-.265-.144-.366-.144h-.064c-.086 0-.208.048-.366.144l-2.368 1.644a.136.136 0 0 1-.172 0 .15.15 0 0 1-.065-.165l.904-2.65c.072-.165.086-.296.043-.391-.028-.082-.115-.172-.258-.267l-2.346-1.644a.15.15 0 0 1-.065-.165c.029-.055.079-.082.15-.082h2.907c.186 0 .315-.028.387-.082.072-.055.144-.171.216-.35l.904-2.65c.014-.055.057-.083.129-.083h.064c.072 0 .122.028.151.082l.904 2.651c.058.179.122.295.194.35.086.054.222.082.409.082h2.906c.057 0 .1.027.129.082zM27 13.6c0 1.766-.261 3.735-.646 4.862-1.205 3.572-4.405 6.696-9.6 9.372A1.71 1.71 0 0 1 16 28c-.272 0-.524-.055-.753-.166-5.195-2.676-8.513-5.753-9.58-9.372a17.094 17.094 0 0 1-.666-4.862c.014-1.78 0-4.3 0-4.32 0-1.49.954-2.618 2.346-2.963.614-.152 2.982-.814 7.103-1.986C15.15 4.111 15.667 4 16 4c.334 0 .879.11 1.636.331 3.77 1.076 6.123 1.738 7.06 1.986C26.104 6.69 27 7.77 27 9.28v4.32z"
      stroke="#FF7800" stroke-width="1.2" fill="none" fill-rule="evenodd" stroke-linecap="round" stroke-linejoin="round"></path>
  </symbol>
</svg>