<svg aria-hidden="true" style="position: absolute; width: 0; height: 0; overflow: hidden;" version="1.1" xmlns="http://www.w3.org/2000/svg" xmlns:xlink="http://www.w3.org/1999/xlink">
<defs>
<symbol id="icon-back-s" viewBox="0 0 32 32">
<title>back-s</title>
<path fill="none" stroke="#4e22d0" style="stroke: var(--color1, #4e22d0)" stroke-linejoin="round" stroke-linecap="round" stroke-miterlimit="4" stroke-width="2.4" d="M20 4l-12 12 12 12"></path>
</symbol>
<symbol id="icon-check" viewBox="0 0 32 32">
<title>check</title>
<path fill="none" stroke="#4e22d0" style="stroke: var(--color1, #4e22d0)" stroke-linejoin="round" stroke-linecap="round" stroke-miterlimit="4" stroke-width="2.8235" d="M3.765 16l7.765 7.529 14.824-15.059"></path>
</symbol>
<symbol id="icon-clean-up-premium" viewBox="0 0 32 32">
<title>clean-up-premium</title>
<path fill="none" stroke="#ff7800" style="stroke: var(--color2, #ff7800)" stroke-linejoin="round" stroke-linecap="round" stroke-miterlimit="4" stroke-width="1.2" d="M7.345 21.725v0zM14.669 22.78v0zM11.552 25.968v0zM19.002 11.491c0-0.755 0.245-1.398 0.735-1.93 0.469-0.492 1.128-0.797 1.86-0.797 0.014 0 0.028 0 0.043 0l-0.002-0c0.744 0 1.369 0.266 1.876 0.798 0.506 0.531 0.76 1.174 0.76 1.929 0 0.736-0.254 1.37-0.76 1.902-0.507 0.514-1.132 0.772-1.876 0.772-0.030 0.001-0.065 0.002-0.1 0.002-0.708 0-1.347-0.297-1.799-0.773l-0.001-0.001c-0.456-0.464-0.737-1.1-0.737-1.802 0-0.035 0.001-0.070 0.002-0.105l-0 0.005zM13.072 13.187c-0.354 0.686-0.71 1.398-1.064 2.135l1.064-2.135z"></path>
</symbol>
<symbol id="icon-cross-s" viewBox="0 0 32 32">
<title>cross-s</title>
<path fill="none" stroke="#ff7800" style="stroke: var(--color2, #ff7800)" stroke-linejoin="round" stroke-linecap="round" stroke-miterlimit="4" stroke-width="1.2" d="M7.345 21.725v0zM14.669 22.78v0zM11.552 25.968v0zM19.002 11.491c0-0.755 0.245-1.398 0.735-1.93 0.469-0.492 1.128-0.797 1.86-0.797 0.014 0 0.028 0 0.043 0l-0.002-0c0.744 0 1.369 0.266 1.876 0.798 0.506 0.531 0.76 1.174 0.76 1.929 0 0.736-0.254 1.37-0.76 1.902-0.507 0.514-1.132 0.772-1.876 0.772-0.030 0.001-0.065 0.002-0.1 0.002-0.708 0-1.347-0.297-1.799-0.773l-0.001-0.001c-0.456-0.464-0.737-1.1-0.737-1.802 0-0.035 0.001-0.070 0.002-0.105l-0 0.005zM13.072 13.187c-0.354 0.686-0.71 1.398-1.064 2.135l1.064-2.135z"></path>
</symbol>
<symbol id="icon-download-m" viewBox="0 0 32 32">
<title>download-m</title>
<path fill="none" stroke="#ff7800" style="stroke: var(--color2, #ff7800)" stroke-linejoin="round" stroke-linecap="round" stroke-miterlimit="4" stroke-width="1.2" d="M7.345 21.725v0zM14.669 22.78v0zM11.552 25.968v0zM19.002 11.491c0-0.755 0.245-1.398 0.735-1.93 0.469-0.492 1.128-0.797 1.86-0.797 0.014 0 0.028 0 0.043 0l-0.002-0c0.744 0 1.369 0.266 1.876 0.798 0.506 0.531 0.76 1.174 0.76 1.929 0 0.736-0.254 1.37-0.76 1.902-0.507 0.514-1.132 0.772-1.876 0.772-0.030 0.001-0.065 0.002-0.1 0.002-0.708 0-1.347-0.297-1.799-0.773l-0.001-0.001c-0.456-0.464-0.737-1.1-0.737-1.802 0-0.035 0.001-0.070 0.002-0.105l-0 0.005zM13.072 13.187c-0.354 0.686-0.71 1.398-1.064 2.135l1.064-2.135z"></path>
</symbol>
<symbol id="icon-free" viewBox="0 0 32 32">
<title>free</title>
<path fill="none" stroke="#ff7800" style="stroke: var(--color2, #ff7800)" stroke-linejoin="round" stroke-linecap="round" stroke-miterlimit="4" stroke-width="1.2" d="M27 13.6c0 1.766-0.261 3.735-0.646 4.862-1.205 3.572-4.405 6.696-9.601 9.372-0.229 0.11-0.481 0.166-0.753 0.166s-0.524-0.055-0.753-0.166c-5.195-2.676-8.513-5.754-9.579-9.372-0.406-1.378-0.681-3.083-0.667-4.862s0-4.3 0-4.32c0-1.489 0.954-2.618 2.346-2.962 0.614-0.152 2.982-0.814 7.104-1.986 0.7-0.221 1.217-0.331 1.55-0.331s0.879 0.11 1.636 0.331c3.769 1.076 6.123 1.738 7.061 1.986 1.407 0.372 2.303 1.452 2.303 2.962 0 1.703 0 3.143 0 4.32z"></path>
</symbol>
<symbol id="icon-info" viewBox="0 0 32 32">
<title>info</title>
<path fill="#514988" style="fill: var(--color3, #514988)" d="M16 0c8.837 0 16 7.163 16 16s-7.163 16-16 16c-8.837 0-16-7.163-16-16s7.163-16 16-16zM16 2.4c-7.511 0-13.6 6.089-13.6 13.6s6.089 13.6 13.6 13.6c7.511 0 13.6-6.089 13.6-13.6s-6.089-13.6-13.6-13.6zM16 15c1.026 0 1.871 0.772 1.987 1.767l0.013 0.233v6.973c0 1.105-0.895 2-2 2-1.026 0-1.871-0.772-1.987-1.767l-0.013-0.233v-6.973c0-1.105 0.895-2 2-2zM16 6c1.026 0 1.871 0.772 1.987 1.767l0.013 0.233v2c0 1.105-0.895 2-2 2-1.026 0-1.871-0.772-1.987-1.767l-0.013-0.233v-2c0-1.105 0.895-2 2-2z"></path>
</symbol>
<symbol id="icon-info-hover" viewBox="0 0 32 32">
<title>info-hover</title>
<path fill="#261c6a" style="fill: var(--color4, #261c6a)" d="M16 0c8.837 0 16 7.163 16 16s-7.163 16-16 16v0c-8.837 0-16-7.163-16-16s7.163-16 16-16v0zM16 15c-1.105 0-2 0.895-2 2v0 6.972l0.014 0.234c0.122 0.998 0.965 1.764 1.986 1.764 1.104 0 1.999-0.894 2-1.998v-6.972l-0.014-0.234c-0.121-0.999-0.964-1.766-1.986-1.766h-0zM16 6c-1.105 0-2 0.895-2 2v0 2l0.014 0.234c0.122 0.998 0.965 1.764 1.986 1.764 1.104 0 1.999-0.894 2-1.998v-2l-0.014-0.234c-0.121-0.999-0.964-1.766-1.986-1.766h-0z"></path>
</symbol>
<symbol id="icon-next-s" viewBox="0 0 32 32">
<title>next-s</title>
<path fill="none" stroke="#4e22d0" style="stroke: var(--color1, #4e22d0)" stroke-linejoin="round" stroke-linecap="round" stroke-miterlimit="4" stroke-width="2.4" d="M12 4l12 12-12 12"></path>
</symbol>
<symbol id="icon-passwords-premium" viewBox="0 0 32 32">
<title>passwords-premium</title>
<path fill="none" stroke="#ff7800" style="stroke: var(--color2, #ff7800)" stroke-linejoin="round" stroke-linecap="round" stroke-miterlimit="4" stroke-width="1.2" d="M19.897 17.518v0zM12.726 12.786c-0.339 0.369-0.825 0.6-1.364 0.6-0.008 0-0.016-0-0.024-0h0.001c-0.541 0-1.010-0.2-1.406-0.6-0.355-0.347-0.575-0.831-0.575-1.366 0-0.011 0-0.022 0-0.032l-0 0.002c0-0.546 0.191-1.018 0.575-1.418 0.353-0.358 0.844-0.579 1.386-0.579 0.007 0 0.014 0 0.021 0h-0.001c0.542 0 1.004 0.193 1.387 0.58 0.396 0.399 0.594 0.871 0.594 1.417 0 0.008 0 0.017 0 0.025 0 0.54-0.228 1.028-0.593 1.371l-0.001 0.001zM27.74 22.97c0.185 0.452 0.27 0.891 0.258 1.317v2.157c-0.006 0.425-0.188 0.807-0.475 1.077l-0.001 0.001c-0.29 0.306-0.647 0.466-1.070 0.479h-2.238c-0.237-0.038-0.446-0.137-0.616-0.281l0.002 0.001c-0.158-0.146-0.25-0.359-0.277-0.638v-2.057h-1.942c-0.277-0.027-0.495-0.12-0.653-0.28-0.143-0.165-0.232-0.381-0.238-0.617l-0-0.001v-1.898h-2.437l-1.703-1.757c-1.017 0.466-2.126 0.699-3.328 0.699-2.206 0-4.094-0.792-5.666-2.376-1.57-1.57-2.356-3.474-2.356-5.71s0.786-4.146 2.357-5.73c1.573-1.57 3.46-2.356 5.666-2.356 2.218 0 4.107 0.785 5.665 2.356 1.572 1.584 2.358 3.494 2.358 5.73 0 0.865-0.12 1.69-0.357 2.476l6.2 6.169c0.383 0.372 0.667 0.785 0.852 1.238z"></path>
</symbol>
<symbol id="icon-premium" viewBox="0 0 32 32">
<title>premium</title>
<path fill="none" stroke="#ff7800" style="stroke: var(--color2, #ff7800)" stroke-linejoin="round" stroke-linecap="round" stroke-miterlimit="4" stroke-width="1.2" d="M20.819 13.268c0.028 0.069 0.014 0.123-0.043 0.164l-2.368 1.644c-0.144 0.096-0.23 0.185-0.258 0.267-0.029 0.096-0.014 0.226 0.043 0.39l0.904 2.651c0.028 0.069 0.014 0.123-0.043 0.164-0.072 0.041-0.129 0.041-0.172 0l-2.389-1.644c-0.144-0.096-0.266-0.144-0.366-0.144h-0.065c-0.086 0-0.208 0.048-0.366 0.144l-2.368 1.644c-0.057 0.041-0.115 0.041-0.172 0s-0.079-0.096-0.065-0.164l0.904-2.651c0.071-0.164 0.086-0.295 0.043-0.39-0.028-0.082-0.115-0.171-0.258-0.267l-2.346-1.644c-0.058-0.041-0.079-0.096-0.065-0.164 0.028-0.055 0.079-0.082 0.151-0.082h2.906c0.186 0 0.316-0.028 0.387-0.082s0.143-0.171 0.215-0.349l0.904-2.651c0.015-0.055 0.057-0.082 0.129-0.082h0.065c0.072 0 0.122 0.028 0.151 0.082l0.904 2.651c0.058 0.178 0.122 0.295 0.194 0.349 0.086 0.055 0.223 0.082 0.409 0.082h2.906c0.057 0 0.101 0.028 0.129 0.082zM27 13.6c0 1.766-0.261 3.735-0.646 4.862-1.205 3.572-4.405 6.696-9.601 9.372-0.229 0.11-0.481 0.166-0.753 0.166s-0.524-0.055-0.753-0.166c-5.195-2.676-8.513-5.754-9.579-9.372-0.406-1.378-0.681-3.083-0.667-4.862s0-4.3 0-4.32c0-1.489 0.954-2.618 2.346-2.962 0.614-0.152 2.982-0.814 7.104-1.986 0.7-0.221 1.217-0.331 1.55-0.331s0.879 0.11 1.636 0.331c3.769 1.076 6.123 1.738 7.061 1.986 1.407 0.372 2.303 1.452 2.303 2.962 0 1.703 0 3.143 0 4.32z"></path>
</symbol>
<symbol id="icon-store" viewBox="0 0 32 32">
<title>store</title>
<path fill="none" stroke="#fff" style="stroke: var(--color5, #fff)" stroke-linejoin="round" stroke-linecap="round" stroke-miterlimit="4" stroke-width="1.6" d="M20.456 28c1.046 0 1.895-0.848 1.895-1.895s-0.848-1.895-1.895-1.895c-1.046 0-1.895 0.848-1.895 1.895s0.848 1.895 1.895 1.895zM10.351 28c1.046 0 1.895-0.848 1.895-1.895s-0.848-1.895-1.895-1.895c-1.046 0-1.895 0.848-1.895 1.895s0.848 1.895 1.895 1.895z"></path>
</symbol>
<symbol id="icon-ultimate" viewBox="0 0 32 32">
<title>ultimate</title>
<path fill="none" stroke="#ff7800" style="stroke: var(--color2, #ff7800)" stroke-linejoin="round" stroke-linecap="round" stroke-miterlimit="4" stroke-width="1.2" d="M14.916 14.216l-2.577 2.46c-0.327 0.325-0.504 0.703-0.532 1.132 0.027 0.417 0.191 0.774 0.491 1.074 0.341 0.299 0.736 0.462 1.186 0.488 0.436-0.026 0.811-0.189 1.125-0.488l0.164-0.156M17.248 14.685l-2.577-2.46c-0.313-0.325-0.688-0.488-1.125-0.488-0.449 0-0.831 0.15-1.145 0.449-0.327 0.325-0.505 0.696-0.532 1.113 0.027 0.429 0.204 0.8 0.532 1.113l0.163 0.156M14.446 16.462l2.576 2.421c0.3 0.325 0.675 0.495 1.125 0.508 0.45-0.013 0.832-0.169 1.145-0.469 0.327-0.325 0.505-0.696 0.532-1.113-0.027-0.43-0.204-0.794-0.532-1.093l-0.163-0.156M16.736 16.891l2.577-2.479c0.341-0.286 0.511-0.644 0.511-1.074s-0.157-0.794-0.47-1.093c-0.341-0.312-0.73-0.481-1.166-0.508-0.45 0.026-0.838 0.195-1.166 0.508l-0.164 0.156M27 13.6c0 1.766-0.261 3.735-0.646 4.862-1.205 3.572-4.405 6.696-9.601 9.372-0.229 0.11-0.481 0.166-0.753 0.166s-0.524-0.055-0.753-0.166c-5.195-2.676-8.513-5.754-9.579-9.372-0.406-1.378-0.681-3.083-0.667-4.862s0-4.3 0-4.32c0-1.489 0.954-2.618 2.346-2.962 0.614-0.152 2.982-0.814 7.104-1.986 0.7-0.221 1.217-0.331 1.55-0.331s0.879 0.11 1.636 0.331c3.769 1.076 6.123 1.738 7.061 1.986 1.407 0.372 2.303 1.452 2.303 2.962 0 1.703 0 3.143 0 4.32z"></path>
</symbol>
<symbol id="icon-vpn" viewBox="0 0 32 32">
<title>vpn</title>
<path fill="none" stroke="#ff7800" style="stroke: var(--color2, #ff7800)" stroke-linejoin="round" stroke-linecap="round" stroke-miterlimit="4" stroke-width="1.2" d="M10.135 16.5h12c1.033 0 1.652 0.8 1.652 1.8s-0.135 6.6-0.135 7.4c0 1-0.62 1.8-1.652 1.8h-12c-1.032 0-1.652-0.8-1.652-1.8 0-0.8 0.136-6.4 0.136-7.4s0.62-1.8 1.651-1.8z"></path>
</symbol>
</defs>
</svg>
